<svg width="27" height="26" viewBox="0 0 27 26" fill="none" xmlns="http://www.w3.org/2000/svg">
<rect x="16.2476" y="3.10815" width="12.3463" height="18.2726" rx="4" transform="rotate(30 16.2476 3.10815)" fill="#FE7F8E"/>
<rect y="4.3457" width="13.7426" height="20.339" rx="4" transform="rotate(-18.4351 0 4.3457)" fill="#FFBCC4"/>
<path fill-rule="evenodd" clip-rule="evenodd" d="M11.8343 9.27146C11.4244 9.0741 10.9479 9.04526 10.5098 9.19129C10.0717 9.33732 9.7079 9.64625 9.4984 10.0501L9.28306 10.4649L8.86189 10.2623C8.00826 9.8515 6.96246 10.2001 6.52601 11.0409C6.08957 11.8817 6.42776 12.8962 7.28139 13.307L7.70256 13.5097L10.7938 14.9971L12.3743 11.9524L12.5896 11.5376C12.7993 11.1338 12.8376 10.6682 12.6959 10.2432C12.5542 9.81819 12.2443 9.46863 11.8343 9.27146Z" fill="white"/>
</svg>
