<svg width="26" height="22" viewBox="0 0 26 22" fill="none" xmlns="http://www.w3.org/2000/svg">
<path fill-rule="evenodd" clip-rule="evenodd" d="M16.7144 12.9578C16.7144 16.5243 13.8231 19.4156 10.2566 19.4156H6.58447L3.83423 21.2491C3.16966 21.6921 2.27949 21.2157 2.27953 20.417L2.27963 17.8819C0.885 16.6974 6.86646e-05 14.9309 6.86646e-05 12.9578C6.86646e-05 9.39125 2.89132 6.5 6.45786 6.5L10.2566 6.5C13.8231 6.5 16.7144 9.39125 16.7144 12.9578Z" fill="#FFBCC4"/>
<path fill-rule="evenodd" clip-rule="evenodd" d="M5.57153 7.89286C5.57153 12.252 9.10528 15.7857 13.4644 15.7857L17.6429 15.7857L21.6595 18.4635C22.324 18.9065 23.2142 18.4301 23.2142 17.6314L23.214 13.9112C24.9185 12.4634 26.0001 10.3045 26.0001 7.89286C26.0001 3.53375 22.4664 0 18.1073 0H13.4644C9.10528 0 5.57153 3.53375 5.57153 7.89286Z" fill="#FE7F8E"/>
<circle cx="11.6072" cy="7.89286" r="1.39286" fill="white"/>
<circle cx="15.7857" cy="7.89286" r="1.39286" fill="white"/>
<circle cx="19.9644" cy="7.89286" r="1.39286" fill="white"/>
</svg>
