<svg width="26" height="22" viewBox="0 0 26 22" fill="none" xmlns="http://www.w3.org/2000/svg">
<mask id="path-1-inside-1" fill="white">
<path fill-rule="evenodd" clip-rule="evenodd" d="M16.7144 12.9578C16.7144 16.5243 13.8231 19.4156 10.2566 19.4156H6.58447L3.83423 21.2491C3.16966 21.6921 2.27949 21.2157 2.27953 20.417L2.27963 17.8819C0.885 16.6974 6.86646e-05 14.9309 6.86646e-05 12.9578C6.86646e-05 9.39125 2.89132 6.5 6.45786 6.5L10.2566 6.5C13.8231 6.5 16.7144 9.39125 16.7144 12.9578Z"/>
</mask>
<path fill-rule="evenodd" clip-rule="evenodd" d="M16.7144 12.9578C16.7144 16.5243 13.8231 19.4156 10.2566 19.4156H6.58447L3.83423 21.2491C3.16966 21.6921 2.27949 21.2157 2.27953 20.417L2.27963 17.8819C0.885 16.6974 6.86646e-05 14.9309 6.86646e-05 12.9578C6.86646e-05 9.39125 2.89132 6.5 6.45786 6.5L10.2566 6.5C13.8231 6.5 16.7144 9.39125 16.7144 12.9578Z" fill="white"/>
<path d="M16.7144 12.9578H14.7144H16.7144ZM6.58447 19.4156L5.47505 17.7515C5.80359 17.5325 6.18961 17.4156 6.58447 17.4156V19.4156ZM3.83423 21.2491L4.94364 22.9132L3.83423 21.2491ZM2.27953 20.417L0.279526 20.4169V20.4169L2.27953 20.417ZM2.27963 17.8819L3.57436 16.3576C4.02178 16.7376 4.27966 17.295 4.27963 17.882L2.27963 17.8819ZM6.45786 6.5V4.5V6.5ZM10.2566 6.5V4.5V6.5ZM10.2566 17.4156C12.7185 17.4156 14.7144 15.4198 14.7144 12.9578L18.7144 12.9578C18.7144 17.6289 14.9277 21.4156 10.2566 21.4156V17.4156ZM6.58447 17.4156H10.2566V21.4156H6.58447V17.4156ZM2.72482 19.585L5.47505 17.7515L7.69388 21.0797L4.94364 22.9132L2.72482 19.585ZM4.27953 20.4171C4.27956 19.6184 3.38939 19.142 2.72482 19.585L4.94364 22.9132C2.94994 24.2423 0.279428 22.8131 0.279526 20.4169L4.27953 20.4171ZM4.27963 17.882L4.27953 20.4171L0.279526 20.4169L0.279633 17.8819L4.27963 17.882ZM2.00007 12.9578C2.00007 14.3193 2.60801 15.5368 3.57436 16.3576L0.984904 19.4063C-0.838013 17.858 -1.99993 15.5426 -1.99993 12.9578H2.00007ZM6.45786 8.5C3.99589 8.5 2.00007 10.4958 2.00007 12.9578H-1.99993C-1.99993 8.28668 1.78675 4.5 6.45786 4.5V8.5ZM10.2566 8.5L6.45786 8.5V4.5L10.2566 4.5V8.5ZM14.7144 12.9578C14.7144 10.4958 12.7185 8.5 10.2566 8.5V4.5C14.9277 4.5 18.7144 8.28668 18.7144 12.9578L14.7144 12.9578Z" fill="#D2CDCD" mask="url(#path-1-inside-1)"/>
<mask id="path-3-inside-2" fill="white">
<path fill-rule="evenodd" clip-rule="evenodd" d="M5.57153 7.89286C5.57153 12.252 9.10528 15.7857 13.4644 15.7857L17.6429 15.7857L21.6595 18.4635C22.324 18.9065 23.2142 18.4301 23.2142 17.6314L23.214 13.9112C24.9185 12.4634 26.0001 10.3045 26.0001 7.89286C26.0001 3.53375 22.4664 0 18.1073 0H13.4644C9.10528 0 5.57153 3.53375 5.57153 7.89286Z"/>
</mask>
<path fill-rule="evenodd" clip-rule="evenodd" d="M5.57153 7.89286C5.57153 12.252 9.10528 15.7857 13.4644 15.7857L17.6429 15.7857L21.6595 18.4635C22.324 18.9065 23.2142 18.4301 23.2142 17.6314L23.214 13.9112C24.9185 12.4634 26.0001 10.3045 26.0001 7.89286C26.0001 3.53375 22.4664 0 18.1073 0H13.4644C9.10528 0 5.57153 3.53375 5.57153 7.89286Z" fill="white"/>
<path d="M13.4644 15.7857V17.7857L13.4644 17.7857L13.4644 15.7857ZM17.6429 15.7857L18.7523 14.1216C18.4238 13.9026 18.0377 13.7857 17.6429 13.7857V15.7857ZM21.6595 18.4635L20.5501 20.1276V20.1276L21.6595 18.4635ZM23.2142 17.6314L25.2142 17.6313V17.6313L23.2142 17.6314ZM23.214 13.9112L21.9193 12.3869C21.4719 12.7669 21.214 13.3243 21.214 13.9113L23.214 13.9112ZM13.4644 13.7857C10.2099 13.7857 7.57153 11.1474 7.57153 7.89286H3.57153C3.57153 13.3565 8.00071 17.7857 13.4644 17.7857V13.7857ZM17.6429 13.7857L13.4644 13.7857L13.4644 17.7857H17.6429V13.7857ZM22.7689 16.7994L18.7523 14.1216L16.5335 17.4498L20.5501 20.1276L22.7689 16.7994ZM21.2142 17.6315C21.2141 16.8327 22.1043 16.3563 22.7689 16.7994L20.5501 20.1276C22.5438 21.4567 25.2143 20.0274 25.2142 17.6313L21.2142 17.6315ZM21.214 13.9113L21.2142 17.6315L25.2142 17.6313L25.214 13.9111L21.214 13.9113ZM24.0001 7.89286C24.0001 9.69284 23.1955 11.3029 21.9193 12.3869L24.5088 15.4356C26.6416 13.624 28.0001 10.9161 28.0001 7.89286H24.0001ZM18.1073 2C21.3618 2 24.0001 4.63832 24.0001 7.89286H28.0001C28.0001 2.42919 23.5709 -2 18.1073 -2V2ZM13.4644 2H18.1073V-2H13.4644V2ZM7.57153 7.89286C7.57153 4.63832 10.2099 2 13.4644 2V-2C8.00071 -2 3.57153 2.42919 3.57153 7.89286H7.57153Z" fill="#D2CDCD" mask="url(#path-3-inside-2)"/>
<circle cx="11.6072" cy="7.89286" r="1.39286" fill="#D2CDCD"/>
<circle cx="15.7857" cy="7.89286" r="1.39286" fill="#D2CDCD"/>
<circle cx="19.9644" cy="7.89286" r="1.39286" fill="#D2CDCD"/>
</svg>
